PathFileType	4	(X/Y/Z)	/Users/niels/Desktop/University/Third Semester/Perception and Action/Exam/Gymnastics Motion Tracking/Code for Gym Tracking/Analyzed Data/Webcam_Backflip/id4_2_baseline_Sports2D/id4_2_baseline_Sports2D_px_person00.trc
DataRate	CameraRate	NumFrames	NumMarkers	Units	OrigDataRate	OrigDataStartFrame	OrigNumFrames
29.81132075471698	29.81132075471698	12	22	m	29.81132075471698	39	159
Frame#	Time	Hip			RHip			RKnee			RAnkle			RBigToe			RSmallToe			RHeel			LHip			LKnee			LAnkle			LBigToe			LSmallToe			LHeel			Neck			Head			Nose			RShoulder			RElbow			RWrist			LShoulder			LElbow			LWrist		
		X1	Y1	Z1	X2	Y2	Z2	X3	Y3	Z3	X4	Y4	Z4	X5	Y5	Z5	X6	Y6	Z6	X7	Y7	Z7	X8	Y8	Z8	X9	Y9	Z9	X10	Y10	Z10	X11	Y11	Z11	X12	Y12	Z12	X13	Y13	Z13	X14	Y14	Z14	X15	Y15	Z15	X16	Y16	Z16	X17	Y17	Z17	X18	Y18	Z18	X19	Y19	Z19	X20	Y20	Z20	X21	Y21	Z21	X22	Y22	Z22
39	1.3082278481012657	0.9246304455430167	-0.6597679939187195	0.0	0.9223520760209204	-0.6623117835459174	0.0	0.9940805547366871	-0.743379326144952	0.0	0.940774746534272	-0.8238344899785659	0.0	0.970643136249895	-0.8420925831451707	0.0	0.957729848277556	-0.8452294030018255	0.0	0.9261102356496038	-0.8311418181574387	0.0	0.9271362482270286	-0.6596566863222423	0.0	0.9915342809445061	-0.7386738914948671	0.0	0.9410798703052394	-0.8200795674122977	0.0	0.9740438248917912	-0.837807230112313	0.0	0.9651774557541469	-0.8366295870010354	0.0	0.926808758701408	-0.8279774063984742	0.0	0.9904154450279987	-0.5294343384011589	0.0	1.0436576426428392	-0.477093375132652	0.0	1.035634369501292	-0.515896689304379	0.0	0.9816542222389496	-0.5455464500849173	0.0	0.9892360691838185	-0.619232736953197	0.0	1.0535508496004249	-0.6336116993548571	0.0	0.9735419784194389	-0.536346528860771	0.0	0.9818946488754695	-0.5985445665877086	0.0	1.0262667977364495	-0.6032783740180984	0.0
40	1.3417721518987342	0.9240699500309766	-0.6379540291529084	0.0	0.9218832924365058	-0.6401538221958818	0.0	1.0001842347135834	-0.7176060721951091	0.0	0.9415672017704786	-0.7981820143201321	0.0	0.9708292227351282	-0.821118484419576	0.0	0.9596098568820547	-0.8225992895786225	0.0	0.9266111151619335	-0.8065765980020092	0.0	0.9270142009205837	-0.6372017019368794	0.0	0.9972349823785073	-0.7122390223468283	0.0	0.9419268080771481	-0.7946839117035214	0.0	0.9728341857215973	-0.8176063546338078	0.0	0.9641154766772669	-0.8154250868315658	0.0	0.9266399119719053	-0.8042516114667585	0.0	0.9877237474183346	-0.5085698440779454	0.0	1.0423459492992937	-0.45818425902404575	0.0	1.0332303899874018	-0.49640278072163435	0.0	0.9789386309888097	-0.5242121715947986	0.0	0.9810828254904199	-0.5991897553588386	0.0	1.0428999178696257	-0.6231159966965302	0.0	0.9713473961452043	-0.5157444943733277	0.0	0.9723660027696409	-0.5812196239183334	0.0	1.016378363806146	-0.5949983115173113	0.0
41	1.3753164556962025	0.9245777000164014	-0.6121076912952409	0.0	0.9224572790173421	-0.6137747052311903	0.0	1.0042143590761934	-0.6903440451641127	0.0	0.943439021625403	-0.7732024710569904	0.0	0.9726400357520829	-0.800738741616172	0.0	0.9628258287283419	-0.8010599710116949	0.0	0.9284454658217319	-0.7827564813203908	0.0	0.9279934806539638	-0.610724756769218	0.0	1.0011583347368709	-0.6847830037345879	0.0	0.9439674473111108	-0.7698751509766492	0.0	0.973455672310036	-0.7978725326619744	0.0	0.9655629925011887	-0.7948297554378178	0.0	0.9278005717152515	-0.7809726489413011	0.0	0.9846879323998996	-0.4833786568711949	0.0	1.0412400402023048	-0.43494452778574755	0.0	1.03046435288257	-0.4728662955613015	0.0	0.9759539401271101	-0.4976994112208715	0.0	0.9767407156678785	-0.5723214615060337	0.0	1.0370236378284818	-0.6016790751666748	0.0	0.9693071139997251	-0.49048884145969796	0.0	0.9673674742947589	-0.5580007693845861	0.0	1.012963718333653	-0.5771444169906385	0.0
42	1.4088607594936708	0.9262155532395336	-0.5851701585928006	0.0	0.9240874864172639	-0.5861765043498959	0.0	1.0055956107134407	-0.6649799341754761	0.0	0.9463965334994241	-0.752107123737238	0.0	0.97567569052146	-0.7839214598906877	0.0	0.9667083673052391	-0.7835168759068971	0.0	0.9316277206603354	-0.7626562448701303	0.0	0.9300007542296486	-0.5832518438106965	0.0	1.0027240065871368	-0.6597522090262077	0.0	0.9471002026767695	-0.7488584585246337	0.0	0.97559018981681	-0.781356506761321	0.0	0.969047208743632	-0.7776230818294394	0.0	0.9303702873304416	-0.7611240988498365	0.0	0.9809183440996082	-0.45647423967953515	0.0	1.039548317454853	-0.40929086201239795	0.0	1.0269183429164424	-0.44738974344064786	0.0	0.972362411332586	-0.4687797875358305	0.0	0.9762099019791243	-0.5406279376621286	0.0	1.0362367065140057	-0.5698991913199111	0.0	0.9669321974261946	-0.4632636238177728	0.0	0.9667992298152392	-0.530361805553455	0.0	1.0156581895921784	-0.5501698142820028	0.0
43	1.4424050632911392	0.9287074344050233	-0.5594532296455643	0.0	0.9265419285703422	-0.5598031316569527	0.0	1.0042415345205238	-0.6434356966886755	0.0	0.9503686432683465	-0.7363037548684379	0.0	0.9795458442528956	-0.7718423455422951	0.0	0.9709409153207816	-0.7710595188349294	0.0	0.9361452801046614	-0.7476367092262863	0.0	0.9326100130638916	-0.5572055969524637	0.0	1.0017793975823528	-0.6390279746360732	0.0	0.9511768262059226	-0.7330685883970633	0.0	0.9788916493587618	-0.7691086600418715	0.0	0.9738309269121	-0.7649433666212987	0.0	0.9344025947640907	-0.7460927926828601	0.0	0.9764718910065117	-0.4301003877482708	0.0	1.0366672238373604	-0.38303845600922787	0.0	1.0226591935938114	-0.42162842176752113	0.0	0.9682468887087436	-0.44011856999600074	0.0	0.9790231440330779	-0.5059461127536062	0.0	1.0397288549168797	-0.5298061414643311	0.0	0.9640229632514131	-0.43640443411836793	0.0	0.9696945904441469	-0.4994858156027339	0.0	1.0221721825353147	-0.5152341836307236	0.0
44	1.4759493670886075	0.9316329445461937	-0.5366397109298714	0.0	0.9295167335359454	-0.5364360424417967	0.0	1.0005381751590643	-0.6263224292418049	0.0	0.955135913895893	-0.7255532197960946	0.0	0.9840597899050002	-0.7640140104213653	0.0	0.9755561382650805	-0.763189936568219	0.0	0.9417983724028315	-0.7375944357606645	0.0	0.9353828751260532	-0.534279572911052	0.0	0.9985712521236739	-0.6230858428294291	0.0	0.9559339894249015	-0.7223123032589163	0.0	0.9830674133375882	-0.7607599299419668	0.0	0.9792274384678952	-0.7564265879904459	0.0	0.9396577238755519	-0.7358067705175338	0.0	0.9716996304765247	-0.4059966201858819	0.0	1.0322316784180945	-0.357738679567904	0.0	1.0179371388585274	-0.3967475465439777	0.0	0.9639067752016945	-0.4139925850500506	0.0	0.9844910534042894	-0.4698360128704339	0.0	1.0459236074163216	-0.48429512864337587	0.0	0.9606742458422799	-0.4117843900982909	0.0	0.9749958527498166	-0.46638932747209344	0.0	1.0293810889716986	-0.47422918361999333	0.0
45	1.5094936708860758	0.9346033796449634	-0.5178230388068013	0.0	0.9327739760118555	-0.5171813219175667	0.0	0.9952343727197451	-0.6134316981059647	0.0	0.9602737305309124	-0.7186635645343333	0.0	0.9890347996338157	-0.7590507677714243	0.0	0.9805671276979699	-0.7585164405616124	0.0	0.9481011843962376	-0.7314936284582995	0.0	0.937959034671709	-0.5154616187384023	0.0	0.993605062154897	-0.6115195024889085	0.0	0.9608591416305511	-0.7154528895017772	0.0	0.9877052613366282	-0.7552217639394839	0.0	0.984596133109708	-0.750834947952654	0.0	0.9454479315680175	-0.7292900317177625	0.0	0.9670190570613539	-0.3853995294128613	0.0	1.0261324108248429	-0.33461741675014084	0.0	1.0129101624747607	-0.37360101885900115	0.0	0.9596595204246534	-0.3920462635230575	0.0	0.991703418661773	-0.43367759564874275	0.0	1.052804171503722	-0.43657476060453376	0.0	0.9572197233104341	-0.3907889933483076	0.0	0.981894942768724	-0.4321962249763827	0.0	1.0347921555968855	-0.42991911080817924	0.0
46	1.5430379746835443	0.93734502049468	-0.5035814545324975	0.0	0.9361750538018389	-0.5026100292844726	0.0	0.9893017536356389	-0.6042959477306721	0.0	0.9651844630542574	-0.7143465262067691	0.0	0.9940744677864951	-0.7555721770437491	0.0	0.9857072744548273	-0.7555659867274154	0.0	0.9542880472073305	-0.7280895831642401	0.0	0.9400419414258192	-0.5012432831556182	0.0	0.9875838527804334	-0.6036737261825681	0.0	0.9652380827249835	-0.7112767068585427	0.0	0.9922921915749991	-0.7514228814679382	0.0	0.9893585612664729	-0.7468665866232381	0.0	0.9508545765390387	-0.7253783581026818	0.0	0.9627310802602186	-0.3690652750260991	0.0	1.0184510961524393	-0.31461865472364514	0.0	1.0075556578707792	-0.35300537163978074	0.0	0.9557800593506562	-0.37513830847375007	0.0	0.9993916432564863	-0.39883574941097816	0.0	1.0582533409377581	-0.38976988273286545	0.0	0.9540802820827182	-0.37427591772863883	0.0	0.9894999234594656	-0.3984805407064766	0.0	1.037762212372698	-0.3856594753917786	0.0
47	1.5765822784810126	0.939704804999522	-0.49412281960782184	0.0	0.9396203810437365	-0.49297644195896684	0.0	0.9837197975555502	-0.5985876152105106	0.0	0.9692182298951538	-0.7117995387956052	0.0	0.9985197225338475	-0.752845942204208	0.0	0.990400969373203	-0.7534315493087526	0.0	0.9594453369434465	-0.726507900580001	0.0	0.9415052072904366	-0.4918541138365628	0.0	0.9813582865014819	-0.5990949065362583	0.0	0.9683941542927301	-0.7090619178838938	0.0	0.9962755642354769	-0.7488599854173605	0.0	0.9930295388570696	-0.7438146210129642	0.0	0.9551103845312899	-0.7232834362328409	0.0	0.9589461331431243	-0.3573395534567363	0.0	1.0094537059750601	-0.29850469646602235	0.0	1.001775075615378	-0.33592113173639887	0.0	0.9524935174555276	-0.3633913451123482	0.0	1.0058929943435049	-0.36683127750023026	0.0	1.060568666498705	-0.34668327568427754	0.0	0.9515584380269168	-0.3625906441843428	0.0	0.9964761957894401	-0.36738977860791466	0.0	1.039588822870572	-0.34481843083600283	0.0
48	1.610126582278481	0.9416456479785112	-0.4894337722733839	0.0	0.9429949887384093	-0.48831075421198167	0.0	0.9792465916970164	-0.5962372821834557	0.0	0.9718297108286656	-0.7108668001830206	0.0	1.0015836589967695	-0.7510031409892319	0.0	0.9938435550630688	-0.7520747230584833	0.0	0.962747644343983	-0.7264787982202401	0.0	0.9424705376473752	-0.48734914593652606	0.0	0.9757889774986925	-0.5976348927620236	0.0	0.969924349566943	-0.7086432398892563	0.0	0.9990915399533918	-0.7477110807651426	0.0	0.995212853688288	-0.7417371667527782	0.0	0.957777141690543	-0.7227845646627141	0.0	0.9556423733355862	-0.3502612476347182	0.0	0.9996405629686189	-0.2868794158716459	0.0	0.9956119864956064	-0.32336632054861447	0.0	0.9499366679155176	-0.3564410754898905	0.0	1.0094826492201707	-0.33937816886431976	0.0	1.0589120031511778	-0.30959320956856307	0.0	0.9496596406262449	-0.35566478212964125	0.0	1.001185547752827	-0.3411894874634788	0.0	1.0413312832563273	-0.31020057770567167	0.0
49	1.6436708860759492	0.9432625860946063	-0.48935126092312936	0.0	0.9461677089093334	-0.488390430023992	0.0	0.9762326147071095	-0.5973299825009202	0.0	0.9727053005946259	-0.7119244620892375	0.0	1.0025934724242096	-0.7507451337176727	0.0	0.9952010287697461	-0.7521188606318331	0.0	0.963721473034117	-0.7283078981607833	0.0	0.943240622934941	-0.48755643285069084	0.0	0.971563666376916	-0.5993107091303456	0.0	0.9697897060547255	-0.710216252946046	0.0	1.0003072954597183	-0.7484770035979168	0.0	0.9956654197457636	-0.7411772460528805	0.0	0.9587027196753096	-0.7241163534782938	0.0	0.9527965272601353	-0.34767464676530746	0.0	0.9897646562673301	-0.2801221888003383	0.0	0.9893530006425747	-0.31614130671610907	0.0	0.9481311619195149	-0.35378242528114057	0.0	1.0091184420996204	-0.31815622957808604	0.0	1.0533952342525894	-0.28012036757096276	0.0	0.9481073983391707	-0.3531570553427791	0.0	1.0024195312348536	-0.3215953131932952	0.0	1.0419656019409305	-0.28364951461713656	0.0
50	1.6772151898734176	0.9447595596895761	-0.4935873332937891	0.0	0.9489976233556352	-0.49277853065778954	0.0	0.974542030033815	-0.6019091580802083	0.0	0.9718258162059328	-0.7155472176594385	0.0	1.0011881966923433	-0.7526924638218119	0.0	0.9939239678955476	-0.7542186469861847	0.0	0.9624198942316111	-0.7325672475902696	0.0	0.9441713792853894	-0.49205195953329595	0.0	0.9690336706011812	-0.604113363086232	0.0	0.9682561257232352	-0.7140950947896667	0.0	0.9998075345036862	-0.7514776039492458	0.0	0.994436777228057	-0.742750299408241	0.0	0.9580102247060149	-0.7276843010819927	0.0	0.9504504965278654	-0.3493627425875554	0.0	0.9807167661461214	-0.2783596270674939	0.0	0.9833983094587646	-0.31460434886407734	0.0	0.9469877307616602	-0.3550593633076772	0.0	1.0049235191969648	-0.3044269150599607	0.0	1.0447438065591428	-0.2592931362458162	0.0	0.9466048671372362	-0.35464529471247	0.0	1.0000827174383702	-0.30947369424030086	0.0	1.039761771075726	-0.265907744291053	0.0
